<svg xmlns="http://www.w3.org/2000/svg" width="375" viewBox="0 0 375 375" height="375" version="1.0"><defs><clipPath id="a"><path d="M 101.949219 153 L 222 153 L 222 284.5 L 101.949219 284.5 Z M 101.949219 153"/></clipPath><clipPath id="b"><path d="M 107 90.25 L 272.949219 90.25 L 272.949219 257 L 107 257 Z M 107 90.25"/></clipPath></defs><g clip-path="url(#a)"><path fill="#49AE5F" d="M 171.671875 197.660156 L 171.671875 239.890625 L 151.875 239.890625 L 151.875 178.644531 L 196.300781 178.601562 C 198.324219 178.601562 200.105469 178.097656 201.648438 177.085938 C 203.1875 176.078125 204.378906 174.632812 205.222656 172.757812 C 206.066406 170.878906 206.511719 168.714844 206.558594 166.257812 C 206.558594 163.804688 206.136719 161.640625 205.292969 159.761719 C 204.449219 157.886719 203.257812 156.441406 201.71875 155.429688 C 200.175781 154.421875 198.371094 153.917969 196.300781 153.914062 L 101.949219 153.976562 L 101.949219 230.996094 C 101.949219 231.863281 102.0625 232.714844 102.285156 233.554688 C 102.511719 234.390625 102.839844 235.183594 103.273438 235.9375 C 103.707031 236.6875 104.230469 237.367188 104.84375 237.980469 C 105.457031 238.59375 106.140625 239.117188 106.890625 239.550781 L 182.503906 283.175781 C 183.253906 283.609375 184.050781 283.9375 184.886719 284.164062 C 185.726562 284.386719 186.578125 284.5 187.445312 284.5 C 188.3125 284.5 189.167969 284.386719 190.003906 284.164062 C 190.84375 283.9375 191.636719 283.609375 192.386719 283.175781 L 221.800781 266.207031 L 183.664062 197.660156 Z M 171.671875 197.660156"/></g><g clip-path="url(#b)"><path fill="#49AE5F" d="M 268.003906 135.195312 L 192.390625 91.570312 C 191.640625 91.136719 190.847656 90.808594 190.007812 90.585938 C 189.171875 90.359375 188.316406 90.25 187.449219 90.25 C 186.582031 90.25 185.730469 90.359375 184.890625 90.585938 C 184.054688 90.808594 183.257812 91.136719 182.507812 91.570312 L 107.480469 134.855469 L 197.894531 134.855469 C 203.675781 134.855469 208.753906 136.15625 213.136719 138.757812 C 217.519531 141.355469 220.914062 145.023438 223.320312 149.761719 C 225.726562 154.503906 226.929688 160 226.933594 166.253906 C 226.933594 172.507812 225.730469 178.007812 223.320312 182.757812 C 220.910156 187.5 217.503906 191.167969 213.101562 193.765625 C 210.894531 195.0625 208.550781 196.03125 206.070312 196.667969 L 238.785156 256.410156 L 268.003906 239.554688 C 268.757812 239.121094 269.4375 238.597656 270.050781 237.984375 C 270.664062 237.371094 271.1875 236.691406 271.621094 235.941406 C 272.054688 235.1875 272.386719 234.394531 272.609375 233.558594 C 272.835938 232.71875 272.945312 231.867188 272.945312 231 L 272.945312 143.75 C 272.945312 142.882812 272.835938 142.03125 272.609375 141.195312 C 272.386719 140.355469 272.054688 139.5625 271.621094 138.8125 C 271.1875 138.0625 270.664062 137.378906 270.050781 136.765625 C 269.4375 136.152344 268.757812 135.628906 268.003906 135.195312 Z M 268.003906 135.195312"/></g></svg>