<svg xmlns="http://www.w3.org/2000/svg" width="375" viewBox="0 0 375 375" height="375" version="1.0"><defs><clipPath id="a"><path d="M 47.496094 130 L 251 130 L 251 352.664062 L 47.496094 352.664062 Z M 47.496094 130"/></clipPath><clipPath id="b"><path d="M 56 22.664062 L 337.746094 22.664062 L 337.746094 305 L 56 305 Z M 56 22.664062"/></clipPath></defs><g clip-path="url(#a)"><path fill="#49AE5F" d="M 165.839844 205.140625 L 165.839844 276.878906 L 132.238281 276.878906 L 132.238281 172.835938 L 207.644531 172.765625 C 211.082031 172.765625 214.105469 171.90625 216.722656 170.191406 C 219.335938 168.472656 221.359375 166.019531 222.789062 162.832031 C 224.21875 159.644531 224.976562 155.964844 225.058594 151.792969 C 225.058594 147.625 224.339844 143.949219 222.910156 140.761719 C 221.480469 137.570312 219.457031 135.117188 216.839844 133.398438 C 214.222656 131.6875 211.160156 130.828125 207.644531 130.824219 L 47.496094 130.925781 L 47.496094 261.773438 C 47.496094 263.246094 47.683594 264.695312 48.066406 266.117188 C 48.445312 267.539062 49.003906 268.890625 49.742188 270.164062 C 50.476562 271.441406 51.367188 272.597656 52.40625 273.640625 C 53.449219 274.679688 54.605469 275.570312 55.882812 276.308594 L 184.226562 350.417969 C 185.503906 351.15625 186.851562 351.714844 188.273438 352.09375 C 189.695312 352.476562 191.144531 352.664062 192.617188 352.664062 C 194.089844 352.664062 195.535156 352.476562 196.957031 352.09375 C 198.378906 351.714844 199.730469 351.15625 201.003906 350.417969 L 250.929688 321.589844 L 186.191406 205.136719 Z M 165.839844 205.140625"/></g><g clip-path="url(#b)"><path fill="#49AE5F" d="M 329.355469 99.023438 L 201.011719 24.914062 C 199.734375 24.175781 198.386719 23.617188 196.964844 23.238281 C 195.542969 22.855469 194.09375 22.664062 192.621094 22.664062 C 191.148438 22.664062 189.703125 22.855469 188.28125 23.238281 C 186.859375 23.617188 185.507812 24.175781 184.234375 24.914062 L 56.886719 98.449219 L 210.351562 98.449219 C 220.160156 98.449219 228.785156 100.65625 236.222656 105.070312 C 243.664062 109.488281 249.421875 115.71875 253.507812 123.769531 C 257.59375 131.824219 259.636719 141.160156 259.640625 151.785156 C 259.640625 162.410156 257.597656 171.757812 253.507812 179.824219 C 249.417969 187.878906 243.636719 194.113281 236.160156 198.527344 C 232.414062 200.730469 228.4375 202.371094 224.230469 203.453125 L 279.761719 304.949219 L 329.355469 276.3125 C 330.632812 275.578125 331.789062 274.6875 332.832031 273.648438 C 333.871094 272.605469 334.761719 271.445312 335.496094 270.171875 C 336.230469 268.894531 336.789062 267.546875 337.171875 266.125 C 337.554688 264.703125 337.742188 263.253906 337.742188 261.78125 L 337.742188 113.554688 C 337.742188 112.082031 337.554688 110.636719 337.171875 109.214844 C 336.789062 107.789062 336.230469 106.441406 335.496094 105.167969 C 334.761719 103.890625 333.871094 102.734375 332.832031 101.691406 C 331.789062 100.648438 330.632812 99.761719 329.355469 99.023438 Z M 329.355469 99.023438"/></g></svg>