<svg xmlns="http://www.w3.org/2000/svg" width="375" viewBox="0 0 375 375" height="375" version="1.0"><defs><clipPath id="a"><path d="M 5.152344 153 L 125 153 L 125 284.5 L 5.152344 284.5 Z M 5.152344 153"/></clipPath><clipPath id="b"><path d="M 10 90.25 L 176.152344 90.25 L 176.152344 257 L 10 257 Z M 10 90.25"/></clipPath></defs><g clip-path="url(#a)"><path fill="#49AE5F" d="M 74.871094 197.660156 L 74.871094 239.890625 L 55.074219 239.890625 L 55.074219 178.644531 L 99.5 178.601562 C 101.523438 178.601562 103.308594 178.097656 104.847656 177.085938 C 106.390625 176.078125 107.582031 174.632812 108.421875 172.757812 C 109.265625 170.878906 109.710938 168.714844 109.757812 166.257812 C 109.757812 163.804688 109.335938 161.640625 108.492188 159.761719 C 107.652344 157.886719 106.457031 156.441406 104.917969 155.429688 C 103.375 154.421875 101.570312 153.917969 99.5 153.914062 L 5.148438 153.976562 L 5.148438 230.996094 C 5.148438 231.863281 5.261719 232.714844 5.484375 233.554688 C 5.710938 234.390625 6.039062 235.183594 6.472656 235.9375 C 6.90625 236.6875 7.429688 237.367188 8.042969 237.980469 C 8.65625 238.59375 9.339844 239.117188 10.089844 239.550781 L 85.703125 283.175781 C 86.457031 283.609375 87.25 283.9375 88.085938 284.164062 C 88.925781 284.386719 89.777344 284.5 90.644531 284.5 C 91.511719 284.5 92.367188 284.386719 93.203125 284.164062 C 94.042969 283.9375 94.835938 283.609375 95.589844 283.175781 L 125 266.207031 L 86.863281 197.660156 Z M 74.871094 197.660156"/></g><g clip-path="url(#b)"><path fill="#49AE5F" d="M 171.207031 135.195312 L 95.59375 91.570312 C 94.839844 91.136719 94.046875 90.808594 93.207031 90.585938 C 92.371094 90.359375 91.515625 90.25 90.648438 90.25 C 89.78125 90.25 88.929688 90.359375 88.089844 90.585938 C 87.253906 90.808594 86.460938 91.136719 85.707031 91.570312 L 10.683594 134.855469 L 101.09375 134.855469 C 106.875 134.855469 111.953125 136.15625 116.335938 138.757812 C 120.71875 141.355469 124.113281 145.023438 126.519531 149.761719 C 128.925781 154.503906 130.132812 160 130.132812 166.253906 C 130.132812 172.507812 128.929688 178.007812 126.519531 182.757812 C 124.109375 187.5 120.703125 191.167969 116.300781 193.765625 C 114.09375 195.0625 111.75 196.03125 109.273438 196.667969 L 141.988281 256.410156 L 171.207031 239.554688 C 171.957031 239.121094 172.640625 238.597656 173.253906 237.984375 C 173.867188 237.371094 174.390625 236.691406 174.824219 235.941406 C 175.257812 235.1875 175.585938 234.394531 175.808594 233.558594 C 176.035156 232.71875 176.148438 231.867188 176.148438 231 L 176.148438 143.75 C 176.148438 142.882812 176.035156 142.03125 175.808594 141.195312 C 175.585938 140.355469 175.257812 139.5625 174.824219 138.8125 C 174.390625 138.0625 173.867188 137.378906 173.253906 136.765625 C 172.640625 136.152344 171.957031 135.628906 171.207031 135.195312 Z M 171.207031 135.195312"/></g><g fill="#FFF"><g><g><path d="M 18.214844 0 L 24.128906 0 L 24.128906 -41.398438 L 39.988281 -41.398438 L 39.988281 -47.046875 L 2.285156 -47.046875 L 2.285156 -41.398438 L 18.214844 -41.398438 Z M 18.214844 0" transform="translate(187.922 209.725)"/></g></g></g><g fill="#FFF"><g><g><path d="M 6.855469 0 L 36.15625 0 L 36.15625 -5.511719 L 12.769531 -5.511719 L 12.769531 -21.238281 L 33.738281 -21.238281 L 33.738281 -26.679688 L 12.769531 -26.679688 L 12.769531 -41.535156 L 35.417969 -41.535156 L 35.417969 -47.046875 L 6.855469 -47.046875 Z M 6.855469 0" transform="translate(231.271 209.725)"/></g></g></g><g fill="#FFF"><g><g><path d="M 27.691406 0.875 C 39.113281 0.875 48.390625 -6.046875 51.210938 -16.53125 L 44.960938 -16.53125 C 42.542969 -9.476562 35.890625 -5.039062 27.890625 -5.039062 C 17.40625 -5.039062 9.945312 -12.636719 9.945312 -23.523438 C 9.945312 -34.410156 17.40625 -42.003906 27.890625 -42.003906 C 35.6875 -42.003906 42.070312 -37.835938 44.492188 -31.050781 L 50.808594 -31.050781 C 47.71875 -41.398438 38.777344 -47.917969 27.691406 -47.917969 C 13.84375 -47.917969 3.898438 -37.703125 3.898438 -23.523438 C 3.898438 -9.34375 13.84375 0.875 27.691406 0.875 Z M 27.691406 0.875" transform="translate(272.805 209.725)"/></g></g></g><g fill="#FFF"><g><g><path d="M 37.703125 0 L 43.617188 0 L 43.617188 -47.046875 L 37.703125 -47.046875 L 37.703125 -26.816406 L 12.769531 -26.816406 L 12.769531 -47.046875 L 6.855469 -47.046875 L 6.855469 0 L 12.769531 0 L 12.769531 -21.171875 L 37.703125 -21.171875 Z M 37.703125 0" transform="translate(328.654 209.725)"/></g></g></g></svg>